<svg width="75" height="75" viewBox="0 0 75 75" fill="none" xmlns="http://www.w3.org/2000/svg">
<circle opacity="0.15" cx="37.5" cy="37.5" r="37.5" fill="#FA5652"/>
<path d="M22.048 53.44C20.024 53.44 18.176 53.0587 16.504 52.296C14.832 51.5333 13.4093 50.4627 12.236 49.084C11.0627 47.7053 10.1387 46.0333 9.464 44.068C8.81867 42.1027 8.496 39.932 8.496 37.556C8.496 35.2093 8.81867 33.0533 9.464 31.088C10.1387 29.1227 11.0627 27.4507 12.236 26.072C13.4387 24.6933 14.876 23.6227 16.548 22.86C18.22 22.0973 20.0533 21.716 22.048 21.716C24.072 21.716 25.92 22.0973 27.592 22.86C29.264 23.6227 30.6867 24.6933 31.86 26.072C33.0333 27.4507 33.9427 29.1227 34.588 31.088C35.2627 33.0533 35.6 35.2093 35.6 37.556C35.6 39.932 35.2773 42.1027 34.632 44.068C33.9867 46.0333 33.0627 47.7053 31.86 49.084C30.6867 50.4627 29.264 51.5333 27.592 52.296C25.92 53.0587 24.072 53.44 22.048 53.44ZM22.048 48.204C24.424 48.204 26.3013 47.2507 27.68 45.344C29.0587 43.4373 29.748 40.8413 29.748 37.556C29.748 34.3293 29.044 31.7627 27.636 29.856C26.2573 27.92 24.3947 26.952 22.048 26.952C19.7013 26.952 17.8387 27.92 16.46 29.856C15.0813 31.7627 14.392 34.3293 14.392 37.556C14.392 40.8413 15.0813 43.4373 16.46 45.344C17.8387 47.2507 19.7013 48.204 22.048 48.204ZM61.7171 22.2V40.724H65.5011V45.784H61.7171V53H55.6891V45.784H38.3091V40.944L54.7651 22.2H61.7171ZM45.2611 40.724H55.6891V28.888L45.2611 40.724Z" fill="#FA5652"/>
</svg>
